<?xml version="1.0" encoding="UTF-8"?>
<svg width="150px" height="65px" viewBox="0 0 150 65" version="1.1" xmlns="http://www.w3.org/2000/svg" xmlns:xlink="http://www.w3.org/1999/xlink">
    <!-- Generator: Sketch 55.2 (78181) - https://sketchapp.com -->
    <title>Illustrations / Wic / Recommandations</title>
    <desc>Created with Sketch.</desc>
    <g id="Checkout" stroke="none" stroke-width="1" fill="none" fill-rule="evenodd">
        <g id="Checkout---Défaut" transform="translate(-645.000000, -2108.000000)">
            <g id="Cross-selling" transform="translate(80.000000, 2098.000000)">
                <g id="Titre">
                    <g id="Illustrations-/-Wic-/-Recommandations" transform="translate(565.000000, 0.000000)">
                        <g id="Illustrations-/-Wic&amp;Toys">
                            <g id="mascottes" transform="translate(0.292969, -6.152344)">
                                <g id="Toys" transform="translate(109.225757, 57.107242) rotate(28.000000) translate(-109.225757, -57.107242) translate(71.953101, 12.220244)">
                                    <path d="M68.872815,41.0121553 C68.2378173,35.5101814 65.958834,24.2947791 59.5955649,18.7458813 C53.2322957,13.1963896 37.1362215,7.63680023 22.4968357,13.806994 C21.2195901,14.3451338 11.3768235,20.7303458 11.0058543,13.5302025 C10.9907497,13.231434 10.6554274,13.0781889 10.4391294,13.2878614 C9.45853829,14.2382186 8.58730451,15.8193753 8.65557734,17.9048153 C8.72082925,19.8874979 9.72679612,22.4451465 11.3677607,24.0298671 C11.8789006,24.5234588 12.4383753,24.9499316 13.0322885,25.3217588 C10.6445521,26.8405483 8.81266526,28.8291707 7.86711682,31.6048075 C5.67151103,38.048823 5.8884132,51.8064306 8.5607204,59.4817526 C11.7798144,68.7299156 20.4148166,70.9792921 30.748785,71.7128491 C39.7988618,72.3549341 44.9803464,71.4140805 51.3369696,69.3951656 C57.6114236,67.4017914 62.3808546,64.4657818 65.6446582,59.5102633 C68.9181288,54.5404894 69.5519181,46.8996179 68.872815,41.0121553" id="Fill-12" fill="#ED3124"></path>
                                    <path d="M48.1732872,39.3082772 C47.544849,37.3315567 45.8178664,35.3858436 43.5425286,36.5462352 C42.4763843,37.0894606 41.5795759,38.067982 40.6705412,38.8187184 C39.2559438,39.9868619 37.7575953,40.8860759 35.9541976,41.3434348 C32.8205647,42.1388933 29.5188185,41.8407454 26.3754045,42.5282745 C24.1184063,43.0226037 22.580322,44.573569 23.1629111,46.8287597 C23.1781942,46.9271485 23.2057036,47.0303077 23.2497188,47.1382372 C23.2741716,47.2121779 23.3047377,47.278963 23.337749,47.3439592 C24.7009955,50.581249 27.090039,53.4703021 30.4969325,54.790501 C34.8073588,56.4601292 40.9664207,55.10296 44.0432007,51.6867814 C46.8424408,48.5788878 49.5108582,43.5169329 48.1732872,39.3082772" id="Fill-16" fill="#000000"></path>
                                    <path d="M33.9326282,28.4764503 C34.6307819,28.4465577 35.341088,29.1018502 35.2912633,29.7870354 C35.2906556,29.7928967 35.290048,29.7993441 35.2894404,29.8063776 C35.2742499,30.0156258 35.2590595,30.224874 35.243869,30.4347083 C35.2979471,30.7518042 35.2669585,31.0847256 35.151511,31.38541 C34.9133245,32.0055348 34.3634297,32.4152392 33.6610227,32.323803 C33.0479356,32.2446755 32.4615837,31.7060227 32.4846732,31.0718308 C32.3376295,30.7787662 32.3260847,30.469876 32.3880618,30.1492633 C32.4220885,29.9687355 32.4943951,29.8145835 32.5910064,29.6832905 C32.6851873,29.0033805 33.1919412,28.5086874 33.9326282,28.4764503 Z M27.7378641,30.0892423 C27.8729094,30.3286164 27.9539366,30.5586261 27.9391459,30.8325309 C27.9262844,31.067808 27.851688,31.2802598 27.736578,31.4669598 C27.7147135,31.5412887 27.6934921,31.6167881 27.6754861,31.6922875 C27.6690554,31.7186244 27.6639108,31.7443762 27.65748,31.7707132 C27.6375448,31.8467978 27.639474,31.8157787 27.6497632,31.7554962 C27.5449423,32.1844966 27.2864271,32.534486 26.807981,32.7176745 C26.3263196,32.903204 25.5983613,32.8464331 25.2375975,32.4472813 C24.9359964,32.1130941 24.6723366,31.7642752 24.578448,31.3305927 C24.4999932,30.9718243 24.4980639,30.6288581 24.5257161,30.2683339 C24.5823065,29.5355802 25.1398505,28.9930381 25.9636266,28.9590926 C26.4530049,28.9391935 26.9462417,29.2207067 27.2092584,29.6110795 C27.4330477,29.7246213 27.6253264,29.8896664 27.7378641,30.0892423 Z" id="Combined-Shape" fill="#000000"></path>
                                    <path d="M65.8793389,39.0467318 C65.3101587,40.6206838 62.7446886,39.9382098 63.3174337,38.3525816 C64.0042524,36.4534474 65.9910361,34.9384602 68.0514923,34.7662362 C69.7637861,34.6226189 71.755917,35.4119302 71.9507929,37.2795387 C72.1201211,38.9007793 71.0257265,40.6113429 70.3145482,42.0060652 C70.1392787,42.3499293 69.1512341,43.7545764 69.4132472,44.1416425 C69.3764109,44.0873481 70.4191158,44.1936016 70.6264685,44.1766711 C71.3447764,44.1177063 71.9674287,43.7761774 72.5568094,43.3984522 C73.9946134,42.4771999 75.324285,44.7382964 73.8977696,45.6519592 C72.266278,46.6969793 69.8849894,47.3105637 68.0657515,46.2999884 C66.6493364,45.5118448 66.5655635,43.989268 67.069389,42.6313258 C67.6302514,41.11809 68.6652326,39.7858354 69.1613344,38.246912 C69.4067117,37.4862074 69.4221592,37.3192377 68.4044078,37.3495959 C67.4603291,37.3770349 66.2019536,38.1535024 65.8793389,39.0467318 Z M24.7876529,64.2293457 C26.4799143,63.8498455 27.1956853,66.3635246 25.5052345,66.7424419 C22.2335693,67.4769585 19.8201052,70.1929211 17.9027319,72.6931924 C15.8912101,75.316466 14.2315386,78.1630094 12.4499566,80.9308546 C11.9297251,81.7405717 10.623111,81.8122745 10.1197779,80.9308546 C8.89705259,78.7902633 7.55000284,76.7610154 5.77928422,75.0005073 C4.5686293,73.7961332 6.47513922,71.9522633 7.6876047,73.1566374 C9.0865569,74.5487213 10.2634149,76.0999504 11.3129308,77.7374561 C12.8844888,75.2453462 14.4475976,72.7509044 16.3076367,70.4430066 C18.4893504,67.7357882 21.20578,65.0332334 24.7876529,64.2293457 Z M43.7895891,87.1724218 C45.5292788,87.3000175 45.5378097,89.8936894 43.7895891,89.7655137 C40.9152926,89.5532409 38.0592766,89.2974696 35.2812572,88.5260958 C34.2197723,88.2308859 34.0503734,87.1051441 34.6798303,86.3592895 C38.7344346,81.5541528 42.2954668,76.1835353 41.8006758,69.7799729 C41.671494,68.1125295 44.3971094,68.1252891 44.5250726,69.7799729 C45.0168168,76.1406167 41.8829379,81.5970713 37.9995605,86.4886251 C39.9049929,86.8557526 41.8360181,87.0285867 43.7895891,87.1724218 Z M8.5766921,38.1491845 C9.87899441,38.6575165 9.31060917,40.8203597 7.99644077,40.3065552 C4.60096189,38.9803924 2.48523977,41.3882808 2.18799446,44.7781742 C2.06340061,46.2034496 -0.120551467,46.2119623 0.00522898391,44.7781742 C0.202799221,42.5204748 0.884505535,40.211699 2.70772878,38.7736545 C4.4253439,37.4189133 6.60929598,37.380606 8.5766921,38.1491845 Z" id="Combined-Shape" fill="#000000"></path>
                                    <path d="M46.0283032,8.08280776 C46.4806797,9.66173171 43.7038863,10.3286608 43.2521751,8.75382126 C42.5662924,6.36151224 41.911677,3.96220135 41.2257944,1.56989233 C40.7727527,-0.00903162106 43.5502113,-0.675960696 44.0019226,0.898878825 C44.6878052,3.29118784 45.3424206,5.69049874 46.0283032,8.08280776 Z M53.4530999,9.47970642 C52.6619954,10.9712641 50.3530093,9.65238776 51.1416397,8.16564353 C52.1943839,6.18311732 53.5730954,4.39794122 54.8206777,2.53093703 C55.7571377,1.12963095 58.0729276,2.43647372 57.1315194,3.84499992 C55.8839371,5.71200412 54.5058441,7.49657854 53.4530999,9.47970642 Z M59.3832471,15.3022096 C57.8407731,16.0283231 56.4888727,13.7719902 58.0362806,13.0434582 C59.6761999,12.2701865 61.2562952,11.4171089 62.7025572,10.3282408 C63.2730444,9.89898129 64.2061764,10.2435981 64.5281161,10.7986124 C64.9166641,11.4666853 64.6249448,12.1547097 64.0495237,12.5882013 C62.6032616,13.6770694 61.0231664,14.5295425 59.3832471,15.3022096 Z" id="Combined-Shape" fill="#000000"></path>
                                    <path d="M34.8573203,43.9197854 L36.2741222,48.5536311 C33.4613711,49.401532 31.4076637,47.3342688 30.3918321,44.5913767 C31.7836107,44.4561164 33.1741977,44.2959573 34.5397612,43.999192 C34.6476002,43.9756392 34.7512687,43.9460299 34.8573203,43.9197854 Z M40.6991319,42.4718804 C41.950989,45.0305071 40.6463717,47.1667795 37.860356,48.2635004 L36.2741222,44.3520568 C37.867208,43.9250357 39.319828,43.2938377 40.6991319,42.4718804 Z" id="Combined-Shape" fill="#FEFEFE"></path>
                                </g>
                                <g id="Wic" transform="translate(0.201293, 24.470402)">
                                    <path d="M53.0613158,31.9425796 C57.0819964,36.5651697 58.660457,41.9885019 58.8846006,48.3073644 C59.2266561,57.9454759 54.3043952,64.7983501 46.1467908,69.6292544 C40.9458799,72.7087768 34.1959864,74.4089069 28.199171,73.9178806 C23.0004849,73.4924348 17.7089155,72.0177029 13.4351695,68.8285125 C9.14918736,65.6299534 5.6440927,60.5190925 4.37932195,55.3481622 C4.02224947,53.8861055 1.54443343,45.6174666 3.35649284,39.1531148 C5.60682813,31.1225493 11.6737232,18.8634269 23.2257409,12.1554909 C23.6506683,11.9080489 24.2062998,12.1290383 24.2368901,12.6162068 C24.601193,18.5267075 36.9808181,21.3802807 38.0092091,21.8299747 C42.8808568,23.9643681 48.3237093,26.4955503 53.0613158,31.9425796" id="Fill-14" fill="#FFD300"></path>
                                    <path d="M21.7813516,6.91072404 C22.2326456,8.43345303 19.8845677,9.07768453 19.4360838,7.56462185 C18.8392291,5.55118519 18.2654169,3.52978804 17.6685623,1.51578278 C17.2167062,-0.00637760274 19.564784,-0.651177706 20.013268,0.861884971 C20.6106847,2.87589023 21.1839349,4.89671878 21.7813516,6.91072404 Z M26.891178,7.9268116 C26.200406,9.26054494 23.9893425,8.0993317 24.675371,6.7740397 C25.48058,5.21924849 26.5656554,3.80584991 27.5386656,2.33388945 C28.3758932,1.06663174 30.5928861,2.2172933 29.7538797,3.48666135 C28.7814624,4.95809422 27.695794,6.37202039 26.891178,7.9268116 Z M32.5951008,12.8440873 C31.2723119,13.6154892 30.0970979,11.4282897 31.4188097,10.6574731 C32.5520132,9.99610425 33.6620572,9.28849811 34.6482244,8.38540773 C35.7884296,7.34067906 37.4446088,9.12520439 36.2963246,10.1763712 C35.1534263,11.223441 33.9098108,12.0767824 32.5951008,12.8440873 Z" id="Combined-Shape" fill="#000000"></path>
                                    <path d="M44.0318457,42.8776545 C43.5109087,41.0774992 41.2025516,41.3305946 38.7579836,41.5984814 C37.1857211,41.7704987 35.5600862,41.9490899 34.3808893,41.5804032 C31.4509659,40.6627951 29.4356012,40.1116824 28.1663384,40.7783863 C27.5931408,41.0791426 27.2000752,41.6127249 26.9560076,42.4344635 C26.4689843,43.8456626 24.3591058,51.2073447 30.6626108,57.5670536 C31.5415879,58.4539835 32.7413554,58.8889571 34.028965,58.8889571 C35.6034513,58.8884093 37.3091448,58.2386879 38.7196222,56.9704714 C43.2690649,52.8798567 44.7662724,45.4162789 44.0318457,42.8776545" id="Fill-47" fill="#000000"></path>
                                    <path d="M23.035844,70.6140943 C23.7541617,69.2429439 25.7420396,70.4707978 25.0242539,71.8413862 C23.1252346,75.4659434 21.6827461,79.487235 21.2655897,83.6270975 C21.1400171,84.8779912 19.2383374,85.4073451 19.004219,83.9502169 C18.8302265,82.8673453 16.4533928,82.1576065 15.6595186,81.9558675 C14.2170301,81.5889163 14.8315909,79.244474 16.271419,79.6108633 C17.1200981,79.8266509 18.3433666,80.2705889 19.3665704,80.9342482 C20.053495,77.3186821 21.3438066,73.8436028 23.035844,70.6140943 Z M62.5368131,71.7146222 C63.8291897,70.8926844 65.0275149,72.9001402 63.7450967,73.7145814 C61.7993397,74.9520394 59.9752962,76.360846 57.9570644,77.4896048 C57.3462837,77.831231 56.7056278,77.5790273 56.3189107,77.0740845 C54.2702504,74.3967629 51.9361166,71.9223823 49.7491455,69.3516182 C48.7765436,68.2089373 50.461723,66.5613136 51.4420702,67.7125619 C53.4984759,70.1296478 55.6511459,72.4803361 57.6295443,74.9590004 C59.3047653,73.9346572 60.8798492,72.767345 62.5368131,71.7146222 Z M58.6588725,25.12602 C60.1813475,25.068298 60.1737078,27.5423422 58.6588725,27.5983497 C55.8671226,27.7040781 53.9692128,30.1986965 53.1479494,32.7984718 C52.6726535,34.3049585 50.3927608,33.655729 50.8713309,32.1406698 C52.0352876,28.4533209 54.7593719,25.2723252 58.6588725,25.12602 Z M8.15974436,46.2125027 C9.62926253,46.7469901 8.99005507,49.0954623 7.50900481,48.5566117 C6.00434122,48.0090348 2.96481092,47.8470524 2.49968316,49.9233724 C2.04334176,51.9576969 3.89232071,53.3337293 5.75283175,53.2066522 C7.32723706,53.0997547 7.31570496,55.5316724 5.75283175,55.6374791 C2.43927696,55.862182 -0.470654569,53.0872106 0.0636657516,49.7112136 C0.64521274,46.03634 5.11417345,45.1048048 8.15974436,46.2125027 Z" id="Combined-Shape" fill="#000000"></path>
                                    <path d="M37.6477279,33.9013778 C37.6863818,33.8692915 37.7375414,33.8253839 37.8131438,33.7567079 C37.7756268,33.7910459 37.7346992,33.8214435 37.6966137,33.8552185 C37.680129,33.8692915 37.6642127,33.886179 37.6477279,33.9013778 Z M36.604073,31.5844078 C37.4931124,31.212882 38.5043663,31.8349062 38.4850394,32.8183238 C38.4770812,33.241638 38.2860855,33.6261109 38.1144168,34.0038288 C37.9973182,34.2627711 37.8682825,34.516647 37.7477733,34.7744634 C37.7375414,34.7964172 37.7273095,34.818934 37.717646,34.8414507 C37.7057088,34.8757887 37.6954769,34.9123783 37.6824028,34.9461534 C37.6772868,34.9591005 37.6795606,34.9810543 37.6721708,34.9917497 C37.6716024,34.9917497 37.6744446,34.9731735 37.6778552,34.9461534 C37.5545039,35.4713558 37.1867235,35.8755308 36.609189,35.9526506 C36.3187164,35.990929 36.0526867,35.9368889 35.7946151,35.8023515 C35.5598496,35.6790725 35.269377,35.3480768 35.2148068,35.0744987 C35.0050526,34.8352586 34.9237658,34.5594288 34.8925016,34.243069 C34.8777222,34.0972732 34.9044388,33.9486629 34.95503,33.8051188 C34.8799959,33.3986921 35.0084633,32.9517353 35.2995043,32.6483226 C35.6797903,32.2514655 36.086793,31.8005682 36.604073,31.5844078 Z M32.1572917,33.2411849 C32.2092358,33.4710433 32.1983903,33.6931098 32.1413089,33.897923 C32.1430214,34.0164698 32.1515836,34.13446 32.1664247,34.2474412 C32.1544377,34.1617313 32.1430214,34.0760214 32.1310343,33.989755 C32.202386,34.4789692 32.0819443,34.9336768 31.6646795,35.2481319 C31.2890841,35.5308632 30.6571933,35.6299304 30.2404993,35.3455295 C29.8900197,35.1073228 29.5874884,34.8412882 29.3899869,34.4639421 C29.2290174,34.1572789 29.1439662,33.8444935 29.0754686,33.5105589 C28.9333359,32.822097 29.2718285,32.1931869 29.9705044,31.97279 C30.385486,31.8414424 30.8809523,31.9889302 31.2091702,32.2872451 C31.2171616,32.2900279 31.225153,32.2905845 31.2331443,32.2933672 C31.6829455,32.4430813 32.052262,32.7770159 32.1572917,33.2411849 Z" id="Combined-Shape" fill="#000000"></path>
                                    <path d="M35.6560848,43.2993919 L36.1063775,46.7568242 C35.708207,46.7491204 35.3191714,46.6792733 34.9801085,46.5339297 C34.1230479,46.1662052 33.3057507,45.3372842 33.0274075,44.4683039 C32.8049479,43.7729143 33.1375626,43.1817817 33.8570636,43.1694557 C33.9269181,43.1627792 33.9999966,43.1638063 34.0789859,43.1807545 C34.5916102,43.2875795 35.1246535,43.3101771 35.6560848,43.2993919 Z M38.7219171,43.6312086 C38.9403172,44.6730804 38.7566506,45.7359433 37.7609562,46.3298359 C37.4109897,46.5387222 36.9857671,46.6825876 36.5437041,46.7568242 L36.1063775,43.3352863 C36.2068942,43.3291426 36.3074109,43.3224869 36.4074014,43.3158312 C36.7768397,43.2917683 37.1462781,43.2590018 37.514664,43.2185557 C37.6014978,43.2098521 38.0635589,43.1514868 37.8951539,43.1745257 C38.2340689,43.1289598 38.6429772,43.254906 38.7219171,43.6312086 Z" id="Combined-Shape" fill="#FEFEFE"></path>
                                </g>
                            </g>
                        </g>
                    </g>
                </g>
            </g>
        </g>
    </g>
</svg>