<?xml version="1.0" encoding="UTF-8"?>
<svg width="250px" height="51px" viewBox="0 0 250 51" version="1.1" xmlns="http://www.w3.org/2000/svg" xmlns:xlink="http://www.w3.org/1999/xlink">
    <!-- Generator: Sketch 55.2 (78181) - https://sketchapp.com -->
    <title>logo</title>
    <desc>Created with Sketch.</desc>
    <defs>
        <polygon id="path-1" points="0.115508435 0.0578792398 29.7928223 0.0578792398 29.7928223 37.6772804 0.115508435 37.6772804"></polygon>
        <polygon id="path-3" points="0.230114569 0.271674973 29.7713216 0.271674973 29.7713216 41.3368514 0.230114569 41.3368514"></polygon>
    </defs>
    <g id="Symbols" stroke="none" stroke-width="1" fill="none" fill-rule="evenodd">
        <g id="Header-/-desktop" transform="translate(-596.000000, -72.000000)">
            <g id="logo">
                <g transform="translate(596.000000, 72.000000)">
                    <g id="Group-3" transform="translate(151.408451, 0.000000)">
                        <mask id="mask-2" fill="white">
                            <use xlink:href="#path-1"></use>
                        </mask>
                        <g id="Clip-2"></g>
                        <path d="M29.7928223,6.218927 L29.7928223,1.62246033 C29.7928223,0.759204619 29.0909573,0.0577476961 28.2289197,0.0577476961 L1.68006887,0.0577476961 C0.817044575,0.0577476961 0.115508435,0.759204619 0.115508435,1.62246033 L0.115508435,6.218927 C0.115508435,7.08152499 0.817044575,7.78298191 1.68006887,7.78298191 L10.5089653,7.78298191 C10.8302972,7.78298191 11.0920987,8.04442507 11.0920987,8.36604948 L11.0920987,36.1132255 C11.0920987,36.9754946 11.793306,37.6772804 12.6560014,37.6772804 L17.2529872,37.6772804 C18.1156826,37.6772804 18.8175476,36.9754946 18.8175476,36.1132255 L18.8175476,8.36604948 C18.8175476,8.04442507 19.0790203,7.78298191 19.400681,7.78298191 L28.2289197,7.78298191 C29.0909573,7.78298191 29.7928223,7.08152499 29.7928223,6.218927" id="Fill-1" fill="#ED3124" mask="url(#mask-2)"></path>
                    </g>
                    <path d="M187.940307,30.9971599 C183.695996,30.9971599 180.243414,27.5472427 180.243414,23.3072808 C180.243414,19.0669862 183.695996,15.617069 187.940307,15.617069 C192.184619,15.617069 195.6372,19.0669862 195.6372,23.3072808 C195.6372,27.5472427 192.184619,30.9971599 187.940307,30.9971599 M187.940307,8.79507476 C179.931117,8.79507476 173.415493,15.3053756 173.415493,23.3072808 C173.415493,31.3088533 179.931117,37.8188215 187.940307,37.8188215 C195.949498,37.8188215 202.464789,31.3088533 202.464789,23.3072808 C202.464789,15.3053756 195.949498,8.79507476 187.940307,8.79507476" id="Fill-4" fill="#ED3124"></path>
                    <g id="Group-8" transform="translate(200.704225, 8.795075)">
                        <mask id="mask-4" fill="white">
                            <use xlink:href="#path-3"></use>
                        </mask>
                        <g id="Clip-7"></g>
                        <path d="M28.5746785,0.271674973 L23.9235571,0.271674973 C23.4515156,0.271674973 23.0237179,0.551846966 22.8317782,0.986868116 L16.0683443,16.3149663 C15.6473783,17.2689946 14.3047765,17.2689946 13.8838105,16.3149663 L7.12037661,0.986868116 C6.92843693,0.551846966 6.50031384,0.271674973 6.02827235,0.271674973 L1.42659982,0.271674973 C0.562220606,0.271674973 -0.0165263319,1.16927517 0.334170239,1.96615781 L11.1494833,26.5304177 C11.286769,26.8430686 11.2864437,27.2000091 11.1478567,27.512332 L5.76085808,39.6387926 C5.40625765,40.4363313 5.98500459,41.3368842 6.85166105,41.3368842 L11.5561352,41.3368842 C12.0291526,41.3368842 12.4569504,41.056056 12.6485648,40.6207068 L29.6671081,1.96615781 C30.01813,1.16927517 29.439383,0.271674973 28.5746785,0.271674973" id="Fill-6" fill="#ED3124" mask="url(#mask-4)"></path>
                    </g>
                    <path d="M249.958655,28.8576553 C249.377485,22.6943794 244.768395,21.1788416 241.717897,20.1755795 C238.861337,19.2371835 238.262771,18.8300241 238.161936,17.7565736 C238.050792,16.5773415 238.890332,15.6169908 240.032376,15.6169908 L247.509623,15.6169908 C248.168433,15.6169908 248.698058,15.0571466 248.68195,14.3775497 L248.577249,9.97563747 C248.561463,9.31932577 248.041825,8.79507476 247.405889,8.79507476 L239.389674,8.79507476 C234.604686,8.79507476 231.089961,12.8154413 231.555477,17.7565736 C232.136003,23.9205147 236.745737,25.4353872 239.795913,26.4383167 C242.652795,27.377378 243.251361,27.7842047 243.352518,28.8576553 C243.463662,30.0375527 242.623801,30.9972381 241.481757,30.9972381 L234.003865,30.9972381 C233.345378,30.9972381 232.816075,31.5570822 232.832183,32.2366792 L232.936883,36.6385914 C232.952347,37.2949031 233.471985,37.8188215 234.108566,37.8188215 L242.124458,37.8188215 C246.909768,37.8188215 250.423849,33.7987875 249.958655,28.8576553" id="Fill-9" fill="#ED3124"></path>
                    <path d="M110.011068,23.2519116 C110.011068,27.4365368 107.487875,30.9716459 104.501197,30.9716459 C101.492354,30.9716459 99.0439272,27.5086683 99.0439272,23.2519116 L99.0439272,2.58939005 C99.0439272,1.64503228 98.25392,0.879507476 97.279313,0.879507476 L93.7418138,0.879507476 C92.7675376,0.879507476 91.9775303,1.64503228 91.9775303,2.58939005 L91.9775303,23.2519116 C91.9775303,27.4365368 89.454337,30.9716459 86.4676595,30.9716459 C83.458486,30.9716459 81.0107205,27.5086683 81.0107205,23.2519116 L81.0107205,2.58939005 C81.0107205,1.64503228 80.2207132,0.879507476 79.2461062,0.879507476 L75.7082763,0.879507476 C74.7336693,0.879507476 73.943662,1.07230139 73.943662,2.01665917 L73.943662,23.2519116 C73.943662,31.2844374 79.562043,37.8188215 86.4676595,37.8188215 C89.3388795,37.8188215 92.0430335,36.6992871 94.2198542,34.69556 C94.9212007,34.0500328 95.9990248,34.0490356 96.7016946,34.6932332 C98.8871168,36.6982899 101.608143,37.8188215 104.501197,37.8188215 C111.435926,37.8188215 117.077465,31.2844374 117.077465,23.2519116 L117.077465,2.58939005 C117.077465,1.64503228 116.287457,0.879507476 115.313181,0.879507476 L111.775682,0.879507476 C110.801075,0.879507476 110.011068,1.64503228 110.011068,2.58939005 L110.011068,23.2519116 Z" id="Fill-11" fill="#FFD300"></path>
                    <path d="M122.503472,7.91556728 L125.736295,7.91556728 C126.788298,7.91556728 127.640845,7.06741919 127.640845,6.02142653 L127.640845,2.77364823 C127.640845,1.72731563 126.788298,0.879507476 125.736295,0.879507476 L122.503472,0.879507476 C121.451469,0.879507476 120.598592,1.72731563 120.598592,2.77364823 L120.598592,6.02142653 C120.598592,7.06741919 121.451469,7.91556728 122.503472,7.91556728" id="Fill-13" fill="#FFD300"></path>
                    <path d="M122.503472,37.8188215 L125.736295,37.8188215 C126.788298,37.8188215 127.640845,37.0015795 127.640845,35.9937024 L127.640845,11.4997012 C127.640845,10.4914966 126.788298,9.67458223 125.736295,9.67458223 L122.503472,9.67458223 C121.451469,9.67458223 120.598592,10.4914966 120.598592,11.4997012 L120.598592,35.9937024 C120.598592,37.0015795 121.451469,37.8188215 122.503472,37.8188215" id="Fill-15" fill="#FFD300"></path>
                    <path d="M151.037279,28.7465574 C149.528051,30.2163451 147.522634,31.0250769 145.391588,31.0254087 C143.259208,31.0254087 141.254458,30.2163451 139.725903,28.7286372 C138.196348,27.2787608 137.353593,25.3530036 137.353593,23.3057874 C137.35326,21.2592349 138.196348,19.3328141 139.725903,17.8829377 L139.744564,17.8650175 C141.254458,16.3955616 143.259208,15.586498 145.391588,15.586498 C147.522634,15.586498 149.528051,16.3955616 151.037279,17.8650175 C151.808388,18.6160063 153.069354,18.6199886 153.845795,17.8739776 L156.110469,15.6996607 C156.886244,14.9543134 156.882911,13.7456959 156.102805,13.0043308 C150.196523,7.38966858 140.585319,7.38966858 134.664375,13.0182687 C128.818409,18.6906738 128.818409,27.9212329 134.678704,33.6075759 C137.632178,36.4150729 141.511716,37.8188215 145.391254,37.8188215 C149.270126,37.8188215 153.149664,36.4150729 156.102805,33.6075759 L156.103138,33.607244 C156.882911,32.865879 156.886244,31.6572615 156.110469,30.912246 L153.846128,28.7375973 C153.069687,27.9915863 151.808721,27.9952367 151.037612,28.7462255 L151.037279,28.7465574 Z" id="Fill-17" fill="#FFD300"></path>
                    <path d="M17.5879093,25.3192505 L7.15521338,25.3192505 C7.14419045,25.3192505 7.13550573,25.31074 7.13550573,25.3005929 L7.13550573,7.64106606 C7.13550573,7.63091897 7.14419045,7.62240851 7.15521338,7.62240851 L17.8327518,7.62240851 C22.7743618,7.62240851 26.8341378,11.2589925 27.1731762,15.8490751 C27.5569744,21.050274 23.1047154,25.3192505 17.5879093,25.3192505 M17.5044023,0.879507476 L1.80441915,0.879507476 C0.808013686,0.879507476 0,1.64283006 0,2.58487225 L0,36.113784 C0,37.0551716 0.808013686,37.8188215 1.80441915,37.8188215 L5.33108657,37.8188215 C6.32749204,37.8188215 7.13550573,37.0551716 7.13550573,36.113784 L7.13550573,32.0811364 C7.13550573,32.070662 7.14419045,32.0624789 7.15521338,32.0624789 L17.8327518,32.0624789 C27.0555984,32.0624789 34.535487,24.8731061 34.3267195,16.1132266 C34.1236305,7.59098529 26.5241599,0.879507476 17.5044023,0.879507476" id="Fill-19" fill="#00B4EA"></path>
                    <path d="M38.8766218,7.91556728 L42.1092937,7.91556728 C43.1612472,7.91556728 44.0140845,7.06741919 44.0140845,6.02142653 L44.0140845,2.77364823 C44.0140845,1.72731563 43.1612472,0.879507476 42.1092937,0.879507476 L38.8766218,0.879507476 C37.8246683,0.879507476 36.971831,1.72731563 36.971831,2.77364823 L36.971831,6.02142653 C36.971831,7.06741919 37.8246683,7.91556728 38.8766218,7.91556728" id="Fill-21" fill="#00B4EA"></path>
                    <path d="M38.8766218,37.8188215 L42.1092937,37.8188215 C43.1612472,37.8188215 44.0140845,37.0015795 44.0140845,35.9937024 L44.0140845,11.4997012 C44.0140845,10.4914966 43.1612472,9.67458223 42.1092937,9.67458223 L38.8766218,9.67458223 C37.8246683,9.67458223 36.971831,10.4914966 36.971831,11.4997012 L36.971831,35.9937024 C36.971831,37.0015795 37.8246683,37.8188215 38.8766218,37.8188215" id="Fill-23" fill="#00B4EA"></path>
                    <path d="M66.5301325,28.7465574 C65.0208883,30.2163451 63.0157827,31.0250769 60.8843792,31.0254087 C58.7523093,31.0254087 56.7472037,30.2163451 55.2186315,28.7286372 C53.6890596,27.2787608 52.8462955,25.3530036 52.8462955,23.3057874 C52.8459622,21.2592349 53.6890596,19.3328141 55.2186315,17.8829377 L55.2376262,17.8650175 C56.7472037,16.3955616 58.7523093,15.586498 60.8843792,15.586498 C63.0157827,15.586498 65.0208883,16.3955616 66.5301325,17.8650175 C67.3015833,18.6160063 68.5622305,18.6199886 69.3386799,17.8739776 L71.6033794,15.6996607 C72.3791623,14.9543134 72.3758299,13.7456959 71.5960481,13.0043308 C65.6893678,7.38966858 56.0780577,7.38966858 50.1573813,13.0182687 C44.3113507,18.6906738 44.3113507,27.9212329 50.1717106,33.6075759 C53.1252174,36.4150729 57.0044651,37.8188215 60.884046,37.8188215 C64.7632937,37.8188215 68.6425414,36.4150729 71.5960481,33.6075759 L71.5963814,33.607244 C72.3758299,32.865879 72.3791623,31.6572615 71.6033794,30.912246 L69.3390131,28.7375973 C68.5625637,27.9915863 67.3019165,27.9952367 66.5304658,28.7462255 L66.5301325,28.7465574 Z" id="Fill-25" fill="#00B4EA"></path>
                </g>
            </g>
        </g>
    </g>
</svg>